Land_normalized_Motion_pl10
version=1
nRows=16
nColumns=43
inDegrees=yes
endheader
time		pelvis_tilt		pelvis_list		pelvis_rotation		pelvis_tx		pelvis_ty		pelvis_tz		hip_flexion_r		hip_adduction_r		hip_rotation_r		knee_angle_r		ankle_angle_r		subtalar_angle_r		mtp_angle_r		hip_flexion_l		hip_adduction_l		hip_rotation_l		knee_angle_l		ankle_angle_l		subtalar_angle_l		mtp_angle_l		lumbar_extension		lumbar_bending		lumbar_rotation		neck_flexion		neck_lateral_bending		neck_rotation		arm_flex_r		arm_add_r		arm_rot_r		elbow_flex_r		pro_sup_r		wrist_flex_r		wrist_dev_r		hand_finger_flex_r		arm_flex_l		arm_add_l		arm_rot_l		elbow_flex_l		pro_sup_l		wrist_flex_l		wrist_dev_l		hand_finger_flex_l		
0.592500		2.117251		6.611545		87.857443		0.008525		1.003518		0.631522		29.542523		-3.097211		-10.411857		-32.709731		-17.648764		2.658328		1.114513		33.433420		-7.782163		-3.851862		-36.493863		-26.878538		6.775542		17.122743		-37.601012		4.275876		6.626870		-10.952794		-1.252564		-5.413619		-45.229455		-9.153337		-47.472803		33.395356		95.450891		4.507026		-9.999886		-2.635445		-51.688194		-13.379040		-16.128164		43.644760		122.034819		-31.070610		-11.477213		-14.314339		
0.595429		2.170918		6.965730		87.834765		0.008321		0.991930		0.627196		30.183737		-2.988996		-9.697079		-34.494091		-17.703795		2.863379		1.017541		34.023239		-7.699635		-3.168947		-38.261263		-27.132507		6.758893		17.138712		-38.337542		4.316679		6.619045		-10.002821		-1.484233		-5.462146		-44.157530		-9.135741		-47.277655		33.802807		95.247103		4.390730		-10.243417		-2.565526		-50.914770		-13.219586		-16.220917		43.901775		121.925417		-31.293317		-11.430128		-14.359306		
0.598359		2.121734		6.883919		87.779045		0.007997		0.979147		0.622910		31.438425		-2.961500		-8.934276		-36.434631		-17.741189		3.189664		0.821447		35.164793		-7.530742		-2.617800		-40.126349		-27.500100		6.432841		17.139640		-38.551672		4.275297		6.588706		-9.254808		-1.628828		-5.524153		-43.174371		-9.155756		-46.944297		34.215074		94.906731		4.217331		-10.771082		-2.363845		-50.168565		-13.095038		-16.241438		44.129865		121.858147		-31.638269		-11.497539		-14.430348		
0.601288		2.038859		6.604948		87.705417		0.007723		0.965908		0.618585		32.928818		-2.923957		-8.114745		-38.349541		-17.814587		3.548824		0.593104		36.524280		-7.335880		-2.133385		-41.923972		-27.958794		5.951449		17.147989		-38.514312		4.195884		6.531434		-8.685282		-1.784701		-5.578551		-42.154861		-9.267688		-46.473962		34.546036		94.523696		3.985881		-11.342982		-2.077619		-49.422904		-13.008796		-16.217100		44.361398		121.795899		-31.976554		-11.616670		-14.476210		
0.604217		2.103807		6.862715		87.629075		0.007547		0.953807		0.614144		33.677961		-2.730633		-7.420422		-39.987166		-17.897918		3.843053		0.656256		37.197308		-7.269804		-1.622647		-43.503280		-28.258561		5.695531		17.215510		-39.137722		4.221107		6.527691		-7.796472		-2.021877		-5.613580		-41.006160		-9.371518		-46.215348		35.000607		94.405137		3.928613		-11.642724		-1.969542		-48.645985		-12.912738		-16.272896		44.769939		121.754481		-32.173669		-11.720547		-14.512462		
0.607146		2.178048		7.235492		87.586476		0.007437		0.942101		0.609351		34.209705		-2.575798		-6.984249		-41.508396		-17.935945		4.028249		0.749888		37.683961		-7.267661		-1.333077		-44.945984		-28.475515		5.527323		17.278710		-39.773030		4.265440		6.475663		-7.529691		-2.121824		-5.652396		-39.807491		-9.487268		-45.999881		35.446455		94.346924		3.928507		-11.865917		-1.917765		-47.782255		-12.905730		-16.254598		45.049969		121.755064		-32.237796		-11.799284		-14.520651		
0.610076		1.902345		6.232102		87.343417		0.007184		0.926944		0.605305		36.685076		-2.517336		-5.867801		-43.607785		-17.599401		4.403137		3.979595		39.800156		-6.958260		-1.084071		-46.457355		-28.915496		4.589971		19.662861		-38.986879		3.930675		6.386761		-6.549508		-2.250452		-5.651671		-38.686993		-9.865197		-44.958085		35.512825		93.868993		3.244183		-12.924025		-1.108021		-47.079212		-12.748130		-16.421911		45.353752		121.606652		-32.659598		-12.379712		-14.230011		
0.613005		2.162593		6.630190		87.239456		0.007173		0.915072		0.600794		37.129655		-2.028678		-5.265566		-45.187359		-16.329595		4.576086		4.747409		40.237851		-7.072481		-0.614798		-47.828396		-28.071058		4.329655		20.205174		-39.775833		4.117385		6.548117		-5.683295		-2.508561		-5.609851		-37.533520		-10.000109		-44.701581		36.166101		93.840126		3.300670		-13.186625		-0.986451		-46.249547		-12.772933		-16.373380		45.957793		121.709725		-32.886264		-12.628870		-14.259060		
0.615934		2.378300		6.686350		87.084579		0.007214		0.902511		0.596330		37.982051		-1.589031		-4.850461		-46.953346		-14.864119		4.606700		9.461239		41.009815		-7.244865		-0.258106		-49.158746		-26.979098		4.453419		23.996287		-40.179305		4.233472		6.738878		-4.874522		-2.629981		-5.613370		-36.334473		-10.225789		-44.174460		36.607518		93.801449		2.987349		-13.772261		-0.459900		-45.312952		-12.793050		-16.351404		46.358570		121.932913		-33.317353		-12.942267		-13.899878		
0.618864		2.590051		6.660279		86.908534		0.007204		0.889811		0.591883		38.912483		-1.134016		-4.502038		-48.873609		-13.057115		4.489961		16.538068		41.834026		-7.431769		0.100434		-50.561778		-25.290820		4.751103		29.769754		-40.454614		4.344657		6.894982		-4.254735		-2.710910		-5.610927		-35.128730		-10.498094		-43.545727		37.086526		93.710829		2.494030		-14.445353		0.327966		-44.385164		-12.807243		-16.268943		46.754762		122.249101		-33.885881		-13.294674		-13.309188		
0.621793		2.773726		6.923529		86.746008		0.007152		0.877856		0.587503		39.429915		-0.691607		-4.187181		-50.914839		-9.559274		4.536685		17.351849		42.310957		-7.526171		0.533053		-52.215489		-21.990335		5.355610		30.576093		-41.078482		4.435771		7.061360		-3.558845		-2.924817		-5.604579		-33.846899		-10.690838		-43.277303		37.742810		93.805327		2.542974		-14.637042		0.403671		-43.400573		-12.921882		-16.060702		47.272150		122.515115		-34.217996		-13.586123		-13.356951		
0.624722		2.995139		6.975233		86.563420		0.007181		0.865648		0.583364		40.184236		-0.208535		-4.039795		-53.127025		-5.635611		4.462695		17.889400		42.998438		-7.700708		1.030225		-53.975582		-18.147316		6.482338		31.388232		-41.514796		4.545590		7.274282		-2.731075		-3.140931		-5.605577		-32.455918		-10.930650		-42.949364		38.253701		94.042249		2.491817		-14.980573		0.506843		-42.333596		-13.062406		-15.796660		47.715668		122.936935		-34.677878		-13.855348		-13.325403		
0.627652		3.197193		6.945766		86.392482		0.007128		0.853376		0.579371		41.056056		0.217871		-4.071693		-55.495776		-1.488874		4.118256		17.362490		43.782371		-7.856848		1.494521		-55.950968		-13.799182		7.553400		31.462611		-41.864873		4.649303		7.498952		-1.926779		-3.297036		-5.606570		-31.063346		-11.163464		-42.631841		38.812151		94.350515		2.426452		-15.397201		0.700154		-41.205575		-13.223004		-15.508617		48.161863		123.503023		-35.250517		-14.039910		-13.159087		
0.630581		3.429159		6.797197		86.243155		0.007045		0.840977		0.575607		42.110871		0.645782		-4.270976		-57.987985		2.999649		3.602230		12.364484		44.751370		-8.013465		1.983530		-58.198254		-8.922096		8.523105		28.090856		-42.101835		4.790754		7.778749		-1.120868		-3.395441		-5.626075		-29.677275		-11.336931		-42.421108		39.450720		94.853743		2.230295		-15.948916		1.321405		-40.012228		-13.409199		-15.181265		48.663750		124.534354		-36.240994		-13.881462		-12.256320		
0.633510		3.455617		6.754359		86.047573		0.006840		0.829082		0.571982		43.147049		0.822093		-4.452987		-60.504528		6.764483		3.138606		9.981996		45.483305		-8.019769		2.262237		-60.361460		-4.179256		9.384824		25.552416		-42.466095		4.707783		7.987173		-0.253021		-3.460344		-5.623665		-28.219322		-11.605630		-41.992405		40.046829		94.948944		2.237793		-16.263702		1.525668		-38.715859		-13.617171		-14.857636		49.129325		125.001643		-36.803657		-14.068738		-12.146554		
0.636439		3.541839		6.636044		85.833348		0.006578		0.817189		0.568580		44.359837		1.015219		-4.769728		-63.031044		10.199906		2.420894		5.362344		46.342660		-8.083461		2.480385		-62.654710		0.708608		9.929586		19.829759		-42.779322		4.672496		8.247254		0.652628		-3.466549		-5.620069		-26.767704		-11.883048		-41.550859		40.735727		95.016697		2.158548		-16.708437		1.939886		-37.394522		-13.813032		-14.506816		49.675716		125.683424		-37.480388		-14.061265		-11.810109		
